<svg width="289" height="324" viewBox="0 0 289 324" fill="none" xmlns="http://www.w3.org/2000/svg">
<path d="M47 215.721V65.3939C47 60.8893 42.221 57.9912 38.2265 60.0734L3.22654 78.3181C1.24358 79.3518 0 81.4024 0 83.6386V239.024C0 241.174 1.1503 243.16 3.01534 244.229L140.005 322.783C141.859 323.846 144.139 323.843 145.99 322.774L285.456 242.257C287.336 241.172 288.483 239.156 288.456 236.986L286.542 84.3538C286.516 82.2697 285.41 80.3485 283.621 79.279L152.422 0.850019C151.491 0.293747 150.428 0 149.343 0H138.889C137.659 0 136.459 0.377837 135.452 1.08237L88.0624 34.2088C86.4566 35.3313 85.5 37.1672 85.5 39.1264V186.438C85.5 188.361 86.422 190.168 87.9794 191.297L118.91 213.71C119.618 214.223 120.471 214.5 121.347 214.5C123.64 214.5 125.5 212.65 125.5 210.356V61.6758C125.5 60.5601 125.807 59.4811 126.435 58.5589C139.195 39.8209 158.305 47.9899 163.211 61.6371C163.415 62.2045 163.5 62.8066 163.5 63.4096V211.092C163.5 212.974 165.026 214.5 166.908 214.5C167.618 214.5 168.311 214.278 168.889 213.865L200.487 191.295C202.064 190.168 203 188.35 203 186.412V95.2812C203 93.8117 203.539 92.3933 204.516 91.295L207.586 87.8403C209.551 85.6299 212.833 85.1808 215.32 86.7822L237.749 101.228C239.464 102.333 240.5 104.233 240.5 106.272V215.603C240.5 217.71 239.394 219.663 237.587 220.748L149.425 273.645C148.493 274.204 147.426 274.5 146.338 274.5H135.259C134.111 274.5 132.986 274.17 132.019 273.55L49.7599 220.771C48.04 219.667 47 217.764 47 215.721Z" fill="#000"/>
</svg>
