<svg width="1202" height="324" viewBox="0 0 1202 324" fill="none" xmlns="http://www.w3.org/2000/svg">
<path d="M47 215.721V65.3939C47 60.8893 42.221 57.9912 38.2265 60.0734L3.22654 78.3181C1.24358 79.3518 0 81.4024 0 83.6386V239.024C0 241.174 1.1503 243.16 3.01534 244.229L140.005 322.783C141.859 323.846 144.139 323.843 145.99 322.774L285.456 242.257C287.336 241.172 288.483 239.156 288.456 236.986L286.542 84.3538C286.516 82.2697 285.41 80.3485 283.621 79.279L152.422 0.850019C151.491 0.293747 150.428 0 149.343 0H138.889C137.659 0 136.459 0.377837 135.452 1.08237L88.0624 34.2088C86.4566 35.3313 85.5 37.1672 85.5 39.1264V186.438C85.5 188.361 86.422 190.168 87.9794 191.297L118.91 213.71C119.618 214.223 120.471 214.5 121.347 214.5C123.64 214.5 125.5 212.65 125.5 210.356V61.6758C125.5 60.5601 125.807 59.4811 126.435 58.5589C139.195 39.8209 158.305 47.9899 163.211 61.6371C163.415 62.2045 163.5 62.8066 163.5 63.4096V211.092C163.5 212.974 165.026 214.5 166.908 214.5C167.618 214.5 168.311 214.278 168.889 213.865L200.487 191.295C202.064 190.168 203 188.35 203 186.412V95.2812C203 93.8117 203.539 92.3933 204.516 91.295L207.586 87.8403C209.551 85.6299 212.833 85.1808 215.32 86.7822L237.749 101.228C239.464 102.333 240.5 104.233 240.5 106.272V215.603C240.5 217.71 239.394 219.663 237.587 220.748L149.425 273.645C148.493 274.204 147.426 274.5 146.338 274.5H135.259C134.111 274.5 132.986 274.17 132.019 273.55L49.7599 220.771C48.04 219.667 47 217.764 47 215.721Z" fill="#29A3E2"/>
<path d="M435.192 98.992L416.472 166H400.632L388.056 118.288L374.904 166L359.16 166.096L341.112 98.992H355.512L367.32 151.024L380.952 98.992H395.928L408.792 150.736L420.696 98.992H435.192Z" fill="#646464"/>
<path d="M485.056 153.232H458.368L453.952 166H439.84L463.936 98.896H479.584L503.68 166H489.472L485.056 153.232ZM481.408 142.48L471.712 114.448L462.016 142.48H481.408Z" fill="#646464"/>
<path d="M526.127 155.344H548.207V166H512.687V98.992H526.127V155.344Z" fill="#646464"/>
<path d="M594.573 166L570.189 136.144V166H556.749V98.992H570.189V129.04L594.573 98.992H610.797L583.149 132.208L611.565 166H594.573Z" fill="#646464"/>
<path d="M633.845 98.992V166H620.405V98.992H633.845Z" fill="#646464"/>
<path d="M700.404 98.992L677.748 142.672V166H664.308V142.672L641.556 98.992H656.724L671.124 129.616L685.428 98.992H700.404Z" fill="#646464"/>
<path d="M749.243 153.232H722.555L718.139 166H704.027L728.123 98.896H743.771L767.867 166H753.659L749.243 153.232ZM745.595 142.48L735.899 114.448L726.203 142.48H745.595Z" fill="#646464"/>
<path d="M813.189 155.344H835.269V166H799.749V98.992H813.189V155.344Z" fill="#646464"/>
<path d="M857.252 98.992V166H843.812V98.992H857.252Z" fill="#646464"/>
<path d="M943.586 98.992V166H930.146V122.416L912.194 166H902.018L883.97 122.416V166H870.53V98.992H885.794L907.106 148.816L928.418 98.992H943.586Z" fill="#646464"/>
<path d="M970.314 98.992V166H956.874V98.992H970.314Z" fill="#646464"/>
<path d="M1029.19 98.992V109.84H1011.34V166H997.897V109.84H980.041V98.992H1029.19Z" fill="#646464"/>
<path d="M1052.44 109.84V126.64H1075V137.296H1052.44V155.056H1077.88V166H1039V98.896H1077.88V109.84H1052.44Z" fill="#646464"/>
<path d="M1113.52 98.992C1120.56 98.992 1126.73 100.368 1132.04 103.12C1137.42 105.872 1141.55 109.808 1144.43 114.928C1147.37 119.984 1148.84 125.872 1148.84 132.592C1148.84 139.312 1147.37 145.2 1144.43 150.256C1141.55 155.248 1137.42 159.12 1132.04 161.872C1126.73 164.624 1120.56 166 1113.52 166H1090.09V98.992H1113.52ZM1113.04 154.576C1120.08 154.576 1125.52 152.656 1129.36 148.816C1133.2 144.976 1135.12 139.568 1135.12 132.592C1135.12 125.616 1133.2 120.176 1129.36 116.272C1125.52 112.304 1120.08 110.32 1113.04 110.32H1103.53V154.576H1113.04Z" fill="#646464"/>
<path d="M908.44 228.48C908.44 229.893 908.107 231.227 907.44 232.48C906.773 233.733 905.707 234.76 904.24 235.56C902.773 236.333 900.893 236.72 898.6 236.72H893.56V248H889V220.2H898.6C900.733 220.2 902.533 220.573 904 221.32C905.493 222.04 906.6 223.027 907.32 224.28C908.067 225.533 908.44 226.933 908.44 228.48ZM898.6 233C900.333 233 901.627 232.613 902.48 231.84C903.333 231.04 903.76 229.92 903.76 228.48C903.76 225.44 902.04 223.92 898.6 223.92H893.56V233H898.6Z" fill="#646464"/>
<path d="M917.349 229.16C918.016 228.04 918.896 227.173 919.989 226.56C921.109 225.92 922.429 225.6 923.949 225.6V230.32H922.789C921.002 230.32 919.642 230.773 918.709 231.68C917.802 232.587 917.349 234.16 917.349 236.4V248H912.789V225.96H917.349V229.16Z" fill="#646464"/>
<path d="M937.701 248.36C935.621 248.36 933.741 247.893 932.061 246.96C930.381 246 929.061 244.667 928.101 242.96C927.141 241.227 926.661 239.227 926.661 236.96C926.661 234.72 927.154 232.733 928.141 231C929.127 229.267 930.474 227.933 932.181 227C933.887 226.067 935.794 225.6 937.901 225.6C940.007 225.6 941.914 226.067 943.621 227C945.327 227.933 946.674 229.267 947.661 231C948.647 232.733 949.141 234.72 949.141 236.96C949.141 239.2 948.634 241.187 947.621 242.92C946.607 244.653 945.221 246 943.461 246.96C941.727 247.893 939.807 248.36 937.701 248.36ZM937.701 244.4C938.874 244.4 939.967 244.12 940.981 243.56C942.021 243 942.861 242.16 943.501 241.04C944.141 239.92 944.461 238.56 944.461 236.96C944.461 235.36 944.154 234.013 943.541 232.92C942.927 231.8 942.114 230.96 941.101 230.4C940.087 229.84 938.994 229.56 937.821 229.56C936.647 229.56 935.554 229.84 934.541 230.4C933.554 230.96 932.767 231.8 932.181 232.92C931.594 234.013 931.301 235.36 931.301 236.96C931.301 239.333 931.901 241.173 933.101 242.48C934.327 243.76 935.861 244.4 937.701 244.4Z" fill="#646464"/>
<path d="M962.888 229.68H958.808V248H954.208V229.68H951.608V225.96H954.208V224.4C954.208 221.867 954.875 220.027 956.208 218.88C957.568 217.707 959.688 217.12 962.568 217.12V220.92C961.182 220.92 960.208 221.187 959.648 221.72C959.088 222.227 958.808 223.12 958.808 224.4V225.96H962.888V229.68Z" fill="#646464"/>
<path d="M987.13 236.44C987.13 237.267 987.076 238.013 986.97 238.68H970.13C970.263 240.44 970.916 241.853 972.09 242.92C973.263 243.987 974.703 244.52 976.41 244.52C978.863 244.52 980.596 243.493 981.61 241.44H986.53C985.863 243.467 984.65 245.133 982.89 246.44C981.156 247.72 978.996 248.36 976.41 248.36C974.303 248.36 972.41 247.893 970.73 246.96C969.076 246 967.77 244.667 966.81 242.96C965.876 241.227 965.41 239.227 965.41 236.96C965.41 234.693 965.863 232.707 966.77 231C967.703 229.267 968.996 227.933 970.65 227C972.33 226.067 974.25 225.6 976.41 225.6C978.49 225.6 980.343 226.053 981.97 226.96C983.596 227.867 984.863 229.147 985.77 230.8C986.676 232.427 987.13 234.307 987.13 236.44ZM982.37 235C982.343 233.32 981.743 231.973 980.57 230.96C979.396 229.947 977.943 229.44 976.21 229.44C974.636 229.44 973.29 229.947 972.17 230.96C971.05 231.947 970.383 233.293 970.17 235H982.37Z" fill="#646464"/>
<path d="M999.617 248.36C997.884 248.36 996.324 248.053 994.937 247.44C993.577 246.8 992.497 245.947 991.697 244.88C990.897 243.787 990.471 242.573 990.417 241.24H995.137C995.217 242.173 995.657 242.96 996.457 243.6C997.284 244.213 998.311 244.52 999.537 244.52C1000.82 244.52 1001.8 244.28 1002.5 243.8C1003.22 243.293 1003.58 242.653 1003.58 241.88C1003.58 241.053 1003.18 240.44 1002.38 240.04C1001.6 239.64 1000.36 239.2 998.657 238.72C997.004 238.267 995.657 237.827 994.617 237.4C993.577 236.973 992.671 236.32 991.897 235.44C991.151 234.56 990.777 233.4 990.777 231.96C990.777 230.787 991.124 229.72 991.817 228.76C992.511 227.773 993.497 227 994.777 226.44C996.084 225.88 997.577 225.6 999.257 225.6C1001.76 225.6 1003.78 226.24 1005.3 227.52C1006.84 228.773 1007.67 230.493 1007.78 232.68H1003.22C1003.14 231.693 1002.74 230.907 1002.02 230.32C1001.3 229.733 1000.32 229.44 999.097 229.44C997.897 229.44 996.977 229.667 996.337 230.12C995.697 230.573 995.377 231.173 995.377 231.92C995.377 232.507 995.591 233 996.017 233.4C996.444 233.8 996.964 234.12 997.577 234.36C998.191 234.573 999.097 234.853 1000.3 235.2C1001.9 235.627 1003.2 236.067 1004.22 236.52C1005.26 236.947 1006.15 237.587 1006.9 238.44C1007.64 239.293 1008.03 240.427 1008.06 241.84C1008.06 243.093 1007.71 244.213 1007.02 245.2C1006.32 246.187 1005.34 246.96 1004.06 247.52C1002.8 248.08 1001.32 248.36 999.617 248.36Z" fill="#646464"/>
<path d="M1020.98 248.36C1019.25 248.36 1017.69 248.053 1016.3 247.44C1014.94 246.8 1013.86 245.947 1013.06 244.88C1012.26 243.787 1011.84 242.573 1011.78 241.24H1016.5C1016.58 242.173 1017.02 242.96 1017.82 243.6C1018.65 244.213 1019.68 244.52 1020.9 244.52C1022.18 244.52 1023.17 244.28 1023.86 243.8C1024.58 243.293 1024.94 242.653 1024.94 241.88C1024.94 241.053 1024.54 240.44 1023.74 240.04C1022.97 239.64 1021.73 239.2 1020.02 238.72C1018.37 238.267 1017.02 237.827 1015.98 237.4C1014.94 236.973 1014.04 236.32 1013.26 235.44C1012.52 234.56 1012.14 233.4 1012.14 231.96C1012.14 230.787 1012.49 229.72 1013.18 228.76C1013.88 227.773 1014.86 227 1016.14 226.44C1017.45 225.88 1018.94 225.6 1020.62 225.6C1023.13 225.6 1025.14 226.24 1026.66 227.52C1028.21 228.773 1029.04 230.493 1029.14 232.68H1024.58C1024.5 231.693 1024.1 230.907 1023.38 230.32C1022.66 229.733 1021.69 229.44 1020.46 229.44C1019.26 229.44 1018.34 229.667 1017.7 230.12C1017.06 230.573 1016.74 231.173 1016.74 231.92C1016.74 232.507 1016.96 233 1017.38 233.4C1017.81 233.8 1018.33 234.12 1018.94 234.36C1019.56 234.573 1020.46 234.853 1021.66 235.2C1023.26 235.627 1024.57 236.067 1025.58 236.52C1026.62 236.947 1027.52 237.587 1028.26 238.44C1029.01 239.293 1029.4 240.427 1029.42 241.84C1029.42 243.093 1029.08 244.213 1028.38 245.2C1027.69 246.187 1026.7 246.96 1025.42 247.52C1024.17 248.08 1022.69 248.36 1020.98 248.36Z" fill="#646464"/>
<path d="M1036.67 223.04C1035.84 223.04 1035.15 222.76 1034.59 222.2C1034.03 221.64 1033.75 220.947 1033.75 220.12C1033.75 219.293 1034.03 218.6 1034.59 218.04C1035.15 217.48 1035.84 217.2 1036.67 217.2C1037.47 217.2 1038.15 217.48 1038.71 218.04C1039.27 218.6 1039.55 219.293 1039.55 220.12C1039.55 220.947 1039.27 221.64 1038.71 222.2C1038.15 222.76 1037.47 223.04 1036.67 223.04ZM1038.91 225.96V248H1034.35V225.96H1038.91Z" fill="#646464"/>
<path d="M1054.46 248.36C1052.38 248.36 1050.5 247.893 1048.82 246.96C1047.14 246 1045.82 244.667 1044.86 242.96C1043.9 241.227 1043.42 239.227 1043.42 236.96C1043.42 234.72 1043.91 232.733 1044.9 231C1045.89 229.267 1047.23 227.933 1048.94 227C1050.65 226.067 1052.55 225.6 1054.66 225.6C1056.77 225.6 1058.67 226.067 1060.38 227C1062.09 227.933 1063.43 229.267 1064.42 231C1065.41 232.733 1065.9 234.72 1065.9 236.96C1065.9 239.2 1065.39 241.187 1064.38 242.92C1063.37 244.653 1061.98 246 1060.22 246.96C1058.49 247.893 1056.57 248.36 1054.46 248.36ZM1054.46 244.4C1055.63 244.4 1056.73 244.12 1057.74 243.56C1058.78 243 1059.62 242.16 1060.26 241.04C1060.9 239.92 1061.22 238.56 1061.22 236.96C1061.22 235.36 1060.91 234.013 1060.3 232.92C1059.69 231.8 1058.87 230.96 1057.86 230.4C1056.85 229.84 1055.75 229.56 1054.58 229.56C1053.41 229.56 1052.31 229.84 1051.3 230.4C1050.31 230.96 1049.53 231.8 1048.94 232.92C1048.35 234.013 1048.06 235.36 1048.06 236.96C1048.06 239.333 1048.66 241.173 1049.86 242.48C1051.09 243.76 1052.62 244.4 1054.46 244.4Z" fill="#646464"/>
<path d="M1081.53 225.6C1083.26 225.6 1084.81 225.96 1086.17 226.68C1087.55 227.4 1088.63 228.467 1089.41 229.88C1090.18 231.293 1090.57 233 1090.57 235V248H1086.05V235.68C1086.05 233.707 1085.55 232.2 1084.57 231.16C1083.58 230.093 1082.23 229.56 1080.53 229.56C1078.82 229.56 1077.46 230.093 1076.45 231.16C1075.46 232.2 1074.97 233.707 1074.97 235.68V248H1070.41V225.96H1074.97V228.48C1075.71 227.573 1076.66 226.867 1077.81 226.36C1078.98 225.853 1080.22 225.6 1081.53 225.6Z" fill="#646464"/>
<path d="M1094.86 236.88C1094.86 234.667 1095.32 232.707 1096.22 231C1097.16 229.293 1098.41 227.973 1099.98 227.04C1101.58 226.08 1103.34 225.6 1105.26 225.6C1107 225.6 1108.5 225.947 1109.78 226.64C1111.09 227.307 1112.13 228.147 1112.9 229.16V225.96H1117.5V248H1112.9V244.72C1112.13 245.76 1111.08 246.627 1109.74 247.32C1108.41 248.013 1106.89 248.36 1105.18 248.36C1103.29 248.36 1101.56 247.88 1099.98 246.92C1098.41 245.933 1097.16 244.573 1096.22 242.84C1095.32 241.08 1094.86 239.093 1094.86 236.88ZM1112.9 236.96C1112.9 235.44 1112.58 234.12 1111.94 233C1111.33 231.88 1110.52 231.027 1109.5 230.44C1108.49 229.853 1107.4 229.56 1106.22 229.56C1105.05 229.56 1103.96 229.853 1102.94 230.44C1101.93 231 1101.1 231.84 1100.46 232.96C1099.85 234.053 1099.54 235.36 1099.54 236.88C1099.54 238.4 1099.85 239.733 1100.46 240.88C1101.1 242.027 1101.93 242.907 1102.94 243.52C1103.98 244.107 1105.08 244.4 1106.22 244.4C1107.4 244.4 1108.49 244.107 1109.5 243.52C1110.52 242.933 1111.33 242.08 1111.94 240.96C1112.58 239.813 1112.9 238.48 1112.9 236.96Z" fill="#646464"/>
<path d="M1128.05 218.4V248H1123.49V218.4H1128.05Z" fill="#646464"/>
<path d="M1136.36 223.04C1135.53 223.04 1134.84 222.76 1134.28 222.2C1133.72 221.64 1133.44 220.947 1133.44 220.12C1133.44 219.293 1133.72 218.6 1134.28 218.04C1134.84 217.48 1135.53 217.2 1136.36 217.2C1137.16 217.2 1137.84 217.48 1138.4 218.04C1138.96 218.6 1139.24 219.293 1139.24 220.12C1139.24 220.947 1138.96 221.64 1138.4 222.2C1137.84 222.76 1137.16 223.04 1136.36 223.04ZM1138.6 225.96V248H1134.04V225.96H1138.6Z" fill="#646464"/>
<path d="M1152.59 248.36C1150.85 248.36 1149.29 248.053 1147.91 247.44C1146.55 246.8 1145.47 245.947 1144.67 244.88C1143.87 243.787 1143.44 242.573 1143.39 241.24H1148.11C1148.19 242.173 1148.63 242.96 1149.43 243.6C1150.25 244.213 1151.28 244.52 1152.51 244.52C1153.79 244.52 1154.77 244.28 1155.47 243.8C1156.19 243.293 1156.55 242.653 1156.55 241.88C1156.55 241.053 1156.15 240.44 1155.35 240.04C1154.57 239.64 1153.33 239.2 1151.63 238.72C1149.97 238.267 1148.63 237.827 1147.59 237.4C1146.55 236.973 1145.64 236.32 1144.87 235.44C1144.12 234.56 1143.75 233.4 1143.75 231.96C1143.75 230.787 1144.09 229.72 1144.79 228.76C1145.48 227.773 1146.47 227 1147.75 226.44C1149.05 225.88 1150.55 225.6 1152.23 225.6C1154.73 225.6 1156.75 226.24 1158.27 227.52C1159.81 228.773 1160.64 230.493 1160.75 232.68H1156.19C1156.11 231.693 1155.71 230.907 1154.99 230.32C1154.27 229.733 1153.29 229.44 1152.07 229.44C1150.87 229.44 1149.95 229.667 1149.31 230.12C1148.67 230.573 1148.35 231.173 1148.35 231.92C1148.35 232.507 1148.56 233 1148.99 233.4C1149.41 233.8 1149.93 234.12 1150.55 234.36C1151.16 234.573 1152.07 234.853 1153.27 235.2C1154.87 235.627 1156.17 236.067 1157.19 236.52C1158.23 236.947 1159.12 237.587 1159.87 238.44C1160.61 239.293 1161 240.427 1161.03 241.84C1161.03 243.093 1160.68 244.213 1159.99 245.2C1159.29 246.187 1158.31 246.96 1157.03 247.52C1155.77 248.08 1154.29 248.36 1152.59 248.36Z" fill="#646464"/>
<path d="M1192.63 225.6C1194.37 225.6 1195.91 225.96 1197.27 226.68C1198.66 227.4 1199.74 228.467 1200.51 229.88C1201.31 231.293 1201.71 233 1201.71 235V248H1197.19V235.68C1197.19 233.707 1196.7 232.2 1195.71 231.16C1194.73 230.093 1193.38 229.56 1191.67 229.56C1189.97 229.56 1188.61 230.093 1187.59 231.16C1186.61 232.2 1186.11 233.707 1186.11 235.68V248H1181.59V235.68C1181.59 233.707 1181.1 232.2 1180.11 231.16C1179.13 230.093 1177.78 229.56 1176.07 229.56C1174.37 229.56 1173.01 230.093 1171.99 231.16C1171.01 232.2 1170.51 233.707 1170.51 235.68V248H1165.95V225.96H1170.51V228.48C1171.26 227.573 1172.21 226.867 1173.35 226.36C1174.5 225.853 1175.73 225.6 1177.03 225.6C1178.79 225.6 1180.37 225.973 1181.75 226.72C1183.14 227.467 1184.21 228.547 1184.95 229.96C1185.62 228.627 1186.66 227.573 1188.07 226.8C1189.49 226 1191.01 225.6 1192.63 225.6Z" fill="#646464"/>
<path d="M346.56 220.2V248H342V220.2H346.56Z" fill="#646464"/>
<path d="M363.667 225.6C365.4 225.6 366.947 225.96 368.307 226.68C369.694 227.4 370.774 228.467 371.547 229.88C372.32 231.294 372.707 233 372.707 235V248H368.187V235.68C368.187 233.707 367.694 232.2 366.707 231.16C365.72 230.094 364.374 229.56 362.667 229.56C360.96 229.56 359.6 230.094 358.587 231.16C357.6 232.2 357.107 233.707 357.107 235.68V248H352.547V225.96H357.107V228.48C357.854 227.574 358.8 226.867 359.947 226.36C361.12 225.854 362.36 225.6 363.667 225.6Z" fill="#646464"/>
<path d="M383.843 229.68V241.88C383.843 242.707 384.03 243.307 384.403 243.68C384.803 244.027 385.47 244.2 386.403 244.2H389.203V248H385.603C383.55 248 381.977 247.52 380.883 246.56C379.79 245.6 379.243 244.04 379.243 241.88V229.68H376.643V225.96H379.243V220.48H383.843V225.96H389.203V229.68H383.843Z" fill="#646464"/>
<path d="M413.606 236.44C413.606 237.267 413.553 238.014 413.446 238.68H396.606C396.74 240.44 397.393 241.854 398.566 242.92C399.74 243.987 401.18 244.52 402.886 244.52C405.34 244.52 407.073 243.494 408.086 241.44H413.006C412.34 243.467 411.126 245.134 409.366 246.44C407.633 247.72 405.473 248.36 402.886 248.36C400.78 248.36 398.886 247.894 397.206 246.96C395.553 246 394.246 244.667 393.286 242.96C392.353 241.227 391.886 239.227 391.886 236.96C391.886 234.694 392.34 232.707 393.246 231C394.18 229.267 395.473 227.934 397.126 227C398.806 226.067 400.726 225.6 402.886 225.6C404.966 225.6 406.82 226.054 408.446 226.96C410.073 227.867 411.34 229.147 412.246 230.8C413.153 232.427 413.606 234.307 413.606 236.44ZM408.846 235C408.82 233.32 408.22 231.974 407.046 230.96C405.873 229.947 404.42 229.44 402.686 229.44C401.113 229.44 399.766 229.947 398.646 230.96C397.526 231.947 396.86 233.294 396.646 235H408.846Z" fill="#646464"/>
<path d="M426.974 225.6C428.68 225.6 430.187 225.947 431.494 226.64C432.827 227.307 433.867 228.147 434.614 229.16V225.96H439.214V248.36C439.214 250.387 438.787 252.187 437.934 253.76C437.08 255.36 435.84 256.614 434.214 257.52C432.614 258.427 430.694 258.88 428.454 258.88C425.467 258.88 422.987 258.174 421.014 256.76C419.04 255.374 417.92 253.48 417.654 251.08H422.174C422.52 252.227 423.254 253.147 424.374 253.84C425.52 254.56 426.88 254.92 428.454 254.92C430.294 254.92 431.774 254.36 432.894 253.24C434.04 252.12 434.614 250.494 434.614 248.36V244.68C433.84 245.72 432.787 246.6 431.454 247.32C430.147 248.014 428.654 248.36 426.974 248.36C425.054 248.36 423.294 247.88 421.694 246.92C420.12 245.934 418.867 244.574 417.934 242.84C417.027 241.08 416.574 239.094 416.574 236.88C416.574 234.667 417.027 232.707 417.934 231C418.867 229.294 420.12 227.974 421.694 227.04C423.294 226.08 425.054 225.6 426.974 225.6ZM434.614 236.96C434.614 235.44 434.294 234.12 433.654 233C433.04 231.88 432.227 231.027 431.214 230.44C430.2 229.854 429.107 229.56 427.934 229.56C426.76 229.56 425.667 229.854 424.654 230.44C423.64 231 422.814 231.84 422.174 232.96C421.56 234.054 421.254 235.36 421.254 236.88C421.254 238.4 421.56 239.734 422.174 240.88C422.814 242.027 423.64 242.907 424.654 243.52C425.694 244.107 426.787 244.4 427.934 244.4C429.107 244.4 430.2 244.107 431.214 243.52C432.227 242.934 433.04 242.08 433.654 240.96C434.294 239.814 434.614 238.48 434.614 236.96Z" fill="#646464"/>
<path d="M449.763 229.16C450.43 228.04 451.31 227.174 452.403 226.56C453.523 225.92 454.843 225.6 456.363 225.6V230.32H455.203C453.416 230.32 452.056 230.774 451.123 231.68C450.216 232.587 449.763 234.16 449.763 236.4V248H445.203V225.96H449.763V229.16Z" fill="#646464"/>
<path d="M462.875 223.04C462.048 223.04 461.355 222.76 460.795 222.2C460.235 221.64 459.955 220.947 459.955 220.12C459.955 219.294 460.235 218.6 460.795 218.04C461.355 217.48 462.048 217.2 462.875 217.2C463.675 217.2 464.355 217.48 464.915 218.04C465.475 218.6 465.755 219.294 465.755 220.12C465.755 220.947 465.475 221.64 464.915 222.2C464.355 222.76 463.675 223.04 462.875 223.04ZM465.115 225.96V248H460.555V225.96H465.115Z" fill="#646464"/>
<path d="M476.422 229.68V241.88C476.422 242.707 476.608 243.307 476.982 243.68C477.382 244.027 478.048 244.2 478.982 244.2H481.782V248H478.182C476.128 248 474.555 247.52 473.462 246.56C472.368 245.6 471.822 244.04 471.822 241.88V229.68H469.222V225.96H471.822V220.48H476.422V225.96H481.782V229.68H476.422Z" fill="#646464"/>
<path d="M505.824 225.96L492.304 258.36H487.584L492.064 247.64L483.384 225.96H488.464L494.664 242.76L501.104 225.96H505.824Z" fill="#646464"/>
<path d="M598.56 223.88V232.04H608.16V235.76H598.56V244.28H609.36V248H594V220.16H609.36V223.88H598.56Z" fill="#646464"/>
<path d="M624.417 236.84L631.537 248H626.377L621.617 240.52L617.137 248H612.377L619.497 237.16L612.377 225.96H617.537L622.297 233.44L626.777 225.96H631.537L624.417 236.84Z" fill="#646464"/>
<path d="M633.417 236.96C633.417 234.693 633.871 232.707 634.778 231C635.711 229.267 636.991 227.933 638.618 227C640.244 226.067 642.111 225.6 644.217 225.6C646.884 225.6 649.084 226.24 650.818 227.52C652.578 228.773 653.764 230.573 654.378 232.92H649.458C649.058 231.827 648.418 230.973 647.538 230.36C646.658 229.747 645.551 229.44 644.217 229.44C642.351 229.44 640.857 230.107 639.737 231.44C638.644 232.747 638.097 234.587 638.097 236.96C638.097 239.333 638.644 241.187 639.737 242.52C640.857 243.853 642.351 244.52 644.217 244.52C646.857 244.52 648.604 243.36 649.458 241.04H654.378C653.738 243.28 652.537 245.067 650.778 246.4C649.018 247.707 646.831 248.36 644.217 248.36C642.111 248.36 640.244 247.893 638.618 246.96C636.991 246 635.711 244.667 634.778 242.96C633.871 241.227 633.417 239.227 633.417 236.96Z" fill="#646464"/>
<path d="M679.122 236.44C679.122 237.267 679.069 238.013 678.962 238.68H662.122C662.255 240.44 662.909 241.853 664.082 242.92C665.255 243.987 666.695 244.52 668.402 244.52C670.855 244.52 672.589 243.493 673.602 241.44H678.522C677.855 243.467 676.642 245.133 674.882 246.44C673.149 247.72 670.989 248.36 668.402 248.36C666.295 248.36 664.402 247.893 662.722 246.96C661.069 246 659.762 244.667 658.802 242.96C657.869 241.227 657.402 239.227 657.402 236.96C657.402 234.693 657.855 232.707 658.762 231C659.695 229.267 660.989 227.933 662.642 227C664.322 226.067 666.242 225.6 668.402 225.6C670.482 225.6 672.335 226.053 673.962 226.96C675.589 227.867 676.855 229.147 677.762 230.8C678.669 232.427 679.122 234.307 679.122 236.44ZM674.362 235C674.335 233.32 673.735 231.973 672.562 230.96C671.389 229.947 669.935 229.44 668.202 229.44C666.629 229.44 665.282 229.947 664.162 230.96C663.042 231.947 662.375 233.293 662.162 235H674.362Z" fill="#646464"/>
<path d="M688.169 218.4V248H683.609V218.4H688.169Z" fill="#646464"/>
<path d="M698.716 218.4V248H694.156V218.4H698.716Z" fill="#646464"/>
<path d="M724.903 236.44C724.903 237.267 724.85 238.013 724.743 238.68H707.903C708.036 240.44 708.69 241.853 709.863 242.92C711.036 243.987 712.476 244.52 714.183 244.52C716.636 244.52 718.37 243.493 719.383 241.44H724.303C723.636 243.467 722.423 245.133 720.663 246.44C718.93 247.72 716.77 248.36 714.183 248.36C712.076 248.36 710.183 247.893 708.503 246.96C706.85 246 705.543 244.667 704.583 242.96C703.65 241.227 703.183 239.227 703.183 236.96C703.183 234.693 703.636 232.707 704.543 231C705.476 229.267 706.77 227.933 708.423 227C710.103 226.067 712.023 225.6 714.183 225.6C716.263 225.6 718.116 226.053 719.743 226.96C721.37 227.867 722.636 229.147 723.543 230.8C724.45 232.427 724.903 234.307 724.903 236.44ZM720.143 235C720.116 233.32 719.516 231.973 718.343 230.96C717.17 229.947 715.716 229.44 713.983 229.44C712.41 229.44 711.063 229.947 709.943 230.96C708.823 231.947 708.156 233.293 707.943 235H720.143Z" fill="#646464"/>
<path d="M740.511 225.6C742.244 225.6 743.791 225.96 745.151 226.68C746.537 227.4 747.617 228.467 748.391 229.88C749.164 231.293 749.551 233 749.551 235V248H745.031V235.68C745.031 233.707 744.537 232.2 743.551 231.16C742.564 230.093 741.217 229.56 739.511 229.56C737.804 229.56 736.444 230.093 735.431 231.16C734.444 232.2 733.951 233.707 733.951 235.68V248H729.391V225.96H733.951V228.48C734.697 227.573 735.644 226.867 736.791 226.36C737.964 225.853 739.204 225.6 740.511 225.6Z" fill="#646464"/>
<path d="M753.847 236.96C753.847 234.693 754.301 232.707 755.207 231C756.141 229.267 757.421 227.933 759.047 227C760.674 226.067 762.541 225.6 764.647 225.6C767.314 225.6 769.514 226.24 771.247 227.52C773.007 228.773 774.194 230.573 774.807 232.92H769.887C769.487 231.827 768.847 230.973 767.967 230.36C767.087 229.747 765.981 229.44 764.647 229.44C762.781 229.44 761.287 230.107 760.167 231.44C759.074 232.747 758.527 234.587 758.527 236.96C758.527 239.333 759.074 241.187 760.167 242.52C761.287 243.853 762.781 244.52 764.647 244.52C767.287 244.52 769.034 243.36 769.887 241.04H774.807C774.167 243.28 772.967 245.067 771.207 246.4C769.447 247.707 767.261 248.36 764.647 248.36C762.541 248.36 760.674 247.893 759.047 246.96C757.421 246 756.141 244.667 755.207 242.96C754.301 241.227 753.847 239.227 753.847 236.96Z" fill="#646464"/>
<path d="M799.552 236.44C799.552 237.267 799.498 238.013 799.392 238.68H782.552C782.685 240.44 783.338 241.853 784.512 242.92C785.685 243.987 787.125 244.52 788.832 244.52C791.285 244.52 793.018 243.493 794.032 241.44H798.952C798.285 243.467 797.072 245.133 795.312 246.44C793.578 247.72 791.418 248.36 788.832 248.36C786.725 248.36 784.832 247.893 783.152 246.96C781.498 246 780.192 244.667 779.232 242.96C778.298 241.227 777.832 239.227 777.832 236.96C777.832 234.693 778.285 232.707 779.192 231C780.125 229.267 781.418 227.933 783.072 227C784.752 226.067 786.672 225.6 788.832 225.6C790.912 225.6 792.765 226.053 794.392 226.96C796.018 227.867 797.285 229.147 798.192 230.8C799.098 232.427 799.552 234.307 799.552 236.44ZM794.792 235C794.765 233.32 794.165 231.973 792.992 230.96C791.818 229.947 790.365 229.44 788.632 229.44C787.058 229.44 785.712 229.947 784.592 230.96C783.472 231.947 782.805 233.293 782.592 235H794.792Z" fill="#646464"/>
<path d="M556 234C556 237.866 552.866 241 549 241C545.134 241 542 237.866 542 234C542 230.134 545.134 227 549 227C552.866 227 556 230.134 556 234Z" fill="#29A3E2"/>
<path d="M851 234C851 237.866 847.866 241 844 241C840.134 241 837 237.866 837 234C837 230.134 840.134 227 844 227C847.866 227 851 230.134 851 234Z" fill="#29A3E2"/>
</svg>
