<svg width="22" height="24" viewBox="0 0 22 24" fill="none" xmlns="http://www.w3.org/2000/svg">
<path d="M3.48602 16.0002V4.85031C3.48602 4.5162 3.13156 4.30125 2.83529 4.45568L0.239315 5.80891C0.0922372 5.88558 0 6.03767 0 6.20353V17.7286C0 17.888 0.0853185 18.0353 0.22365 18.1146L10.3843 23.941C10.5218 24.0199 10.6909 24.0197 10.8282 23.9404L21.1725 17.9684C21.3119 17.8879 21.397 17.7384 21.395 17.5774L21.253 6.25658C21.2511 6.102 21.1691 5.9595 21.0364 5.88018L11.3052 0.0630465C11.2362 0.0217874 11.1573 0 11.0769 0H10.3015C10.2103 0 10.1213 0.0280244 10.0466 0.0802801L6.53165 2.53729C6.41254 2.62055 6.34159 2.75672 6.34159 2.90203V13.8282C6.34159 13.9709 6.40998 14.1049 6.52549 14.1886L8.81963 15.851C8.87215 15.8891 8.93541 15.9096 9.00039 15.9096C9.17046 15.9096 9.30842 15.7724 9.30842 15.6022V4.57454C9.30842 4.49178 9.33119 4.41175 9.37777 4.34335C10.3242 2.95354 11.7416 3.55944 12.1055 4.57167C12.1206 4.61375 12.1269 4.65841 12.1269 4.70313V15.6568C12.1269 15.7964 12.2401 15.9096 12.3797 15.9096C12.4323 15.9096 12.4837 15.8931 12.5266 15.8625L14.8703 14.1885C14.9872 14.1049 15.0566 13.97 15.0566 13.8263V7.06707C15.0566 6.95808 15.0966 6.85287 15.1691 6.77141L15.3968 6.51517C15.5425 6.35123 15.786 6.31792 15.9704 6.43669L17.634 7.50815C17.7612 7.59011 17.838 7.73103 17.838 7.88227V15.9914C17.838 16.1477 17.756 16.2926 17.622 16.373L11.083 20.2964C11.0138 20.3379 10.9347 20.3599 10.854 20.3599H10.0323C9.9471 20.3599 9.86366 20.3354 9.79194 20.2894L3.69073 16.3747C3.56316 16.2929 3.48602 16.1517 3.48602 16.0002Z" fill="#29A3E2"/>
</svg>
